<svg xmlns="http://www.w3.org/2000/svg" viewBox="0 0 100 100" fill="none">
  <circle cx="50" cy="50" r="48" fill="url(#psychBg)"/>
  <defs>
    <linearGradient id="psychBg" x1="0%" y1="0%" x2="100%" y2="100%">
      <stop offset="0%" stop-color="#EEF2FF"/>
      <stop offset="100%" stop-color="#EDE9FE"/>
    </linearGradient>
  </defs>
  <!-- Head silhouette -->
  <circle cx="50" cy="35" r="14" fill="#C7D2FE" stroke="#4F46E5" stroke-width="2"/>
  <!-- Body -->
  <path d="M30 75c0-11 9-20 20-20s20 9 20 20" fill="#E0E7FF" stroke="#4F46E5" stroke-width="2"/>
  <!-- Heart on chest -->
  <path d="M46 60c0-2 2-3 4-3s4 1 4 3c0 3-4 6-4 6s-4-3-4-6z" fill="#8B5CF6"/>
  <!-- Mind wave on head -->
  <path d="M42 35 Q44 31 46 35 Q48 39 50 35 Q52 31 54 35 Q56 39 58 35" stroke="#4F46E5" stroke-width="2" fill="none" stroke-linecap="round"/>
</svg>
