<svg xmlns="http://www.w3.org/2000/svg" viewBox="0 0 100 100" fill="none">
  <circle cx="50" cy="50" r="48" fill="url(#psyBg)"/>
  <defs>
    <linearGradient id="psyBg" x1="0%" y1="0%" x2="100%" y2="100%">
      <stop offset="0%" stop-color="#EEF2FF"/>
      <stop offset="100%" stop-color="#EDE9FE"/>
    </linearGradient>
  </defs>
  <!-- Brain outline -->
  <path d="M34 42c0-9 7-16 16-16s16 7 16 16c0 4-1.5 7.5-4 10.2V72H38V52.2C35.5 49.5 34 46 34 42z" fill="#C7D2FE" stroke="#4F46E5" stroke-width="2"/>
  <path d="M34 44c-4-1-8 2-8 6s3 7 8 6" stroke="#4F46E5" stroke-width="2" stroke-linecap="round" fill="none"/>
  <path d="M66 44c4-1 8 2 8 6s-3 7-8 6" stroke="#4F46E5" stroke-width="2" stroke-linecap="round" fill="none"/>
  <line x1="50" y1="26" x2="50" y2="72" stroke="#818CF8" stroke-width="1.5" stroke-dasharray="3,3"/>
  <circle cx="50" cy="42" r="5" fill="#4F46E5"/>
  <circle cx="50" cy="42" r="2" fill="white"/>
</svg>
